<?xml version="1.0" encoding="utf-8"?>
<!DOCTYPE svg PUBLIC "-//W3C//DTD SVG 1.0//EN" "http://www.w3.org/TR/2001/REC-SVG-20010904/DTD/svg10.dtd">
<svg version="1.0" xmlns="http://www.w3.org/2000/svg" width="500px" height="500px" viewBox="0 0 500 500" preserveAspectRatio="xMidYMid meet">
 <g fill="#ebd68c">
  <path d="M229.5 448.3 c-24.3 -3.2 -38.7 -8.2 -52.5 -18.5 -9.5 -7.2 -15.3 -14.4 -20.5 -25.8 -2.8 -6.2 -2.9 -7.2 -3 -20 0 -10.6 0.4 -14.7 1.9 -19 1.9 -5.6 8.8 -16 10.7 -16 0.5 0 -0.1 1.5 -1.5 3.3 -3.5 4.6 -7.4 15.5 -8.6 24 -2.5 17.4 2.8 31.7 17 45.8 7.4 7.3 10.2 9.3 19.1 13.7 18.4 9 38.2 12.9 60.9 11.9 19 -0.9 32.3 -4.9 47.1 -14.3 20.4 -12.9 32.1 -37.2 28.9 -59.7 -4 -27.3 -20.9 -52.6 -71.5 -106.7 -38.8 -41.4 -59.6 -68.8 -72.3 -95 -10.1 -20.7 -13.3 -33 -13.5 -51.2 -0.2 -13.4 1.2 -19.1 6.9 -29.5 13.5 -24.2 36 -37.9 69.3 -42.2 11.5 -1.5 18.7 -1.4 32.1 0.5 37.9 5.3 59.5 19.8 68 45.8 1.9 5.9 2.2 8.4 1.8 19 -0.3 11.1 -0.6 12.8 -3.3 18.1 -1.7 3.2 -5.2 8.3 -7.9 11.3 -5.1 5.5 -15.4 13.2 -17.8 13.2 -0.7 0 1.4 -1.7 4.7 -3.9 7.8 -4.9 15 -12.8 18.1 -19.6 8.6 -18.7 3.3 -46 -11.7 -60.7 -6 -5.9 -7.5 -6.8 -17.4 -11.6 -16.6 -8 -28 -10.2 -52.2 -10.2 -22.3 0 -29.6 1.4 -43.7 8.4 -16.6 8.2 -30.1 21.7 -37.9 37.6 l-4.2 8.5 0 14 c0 7.9 0.5 15.7 1.2 18 0.6 2.2 1.9 6.5 2.8 9.5 2.3 7.4 11.5 26.3 17.4 35.3 14.6 22.3 31.9 43.2 62.6 75.7 16.9 17.9 38.4 44.2 48.6 59.5 17.8 26.6 24.4 47.5 22 70.1 -2.3 21.6 -13.3 38.2 -32.9 49.5 -15 8.6 -29.9 12 -52.2 11.7 -7.4 0 -14.8 -0.3 -16.5 -0.5z"/>
  <path d="M285.2 412.4 c5.9 -6.8 7.2 -11.7 6 -22.1 -0.6 -4.8 -2.1 -11.7 -3.2 -15.3 -7.7 -23.3 -27.9 -52.9 -62 -91 -3.7 -4.1 -10.4 -11.8 -15 -17 -4.5 -5.2 -9.4 -10.9 -10.9 -12.5 -4.8 -5.4 -21.6 -27.7 -27.8 -37 -6.6 -9.9 -13.2 -22.8 -16.3 -32 -1.5 -4.8 -1.9 -8.5 -1.9 -18.5 l0.1 -12.5 1.3 8 c1.9 12 3.1 15.9 9.2 28.5 11.2 23.3 30.8 50 62.4 85 9.8 10.9 14.6 16.3 26.9 30.5 13.1 15 24.3 31.1 31.4 45 8.2 15.9 10 22.1 10 35 0 13.3 -1.9 18.8 -9.2 25.6 l-4.6 4.4 3.6 -4.1z"/>
  <path d="M346.9 336.5 c-0.4 -0.5 -1.4 -4.4 -2.3 -8.5 -2.4 -10.6 -5.9 -18.9 -12.8 -30.5 -6.6 -11.2 -19.2 -28.5 -25.8 -35.5 -0.8 -0.9 -3 -3.4 -4.9 -5.5 -3.2 -3.8 -19.8 -21.9 -23.1 -25.4 -4.3 -4.4 -16.5 -18.7 -23.7 -27.6 -24.2 -30.2 -33.2 -50.5 -33.3 -74.6 0 -16.2 3.1 -26.3 10.7 -34.5 2.1 -2.2 3.1 -3.1 2.1 -2 -6.3 7.9 -10.8 21.7 -10.8 33.1 0 6.2 1.8 15.3 3.8 19.1 0.6 1.1 2.9 5.7 5.1 10.3 7.7 15.6 21.1 34.7 40.6 58.1 6.7 8 18 21.6 25.2 30.2 31 37.1 46.4 60.8 49.3 76.3 1.1 6 1 18.9 -0.1 17z"/>
 </g>
</svg>